<svg xmlns="http://www.w3.org/2000/svg" viewBox="0 0 29.5 21.6"><defs><style>.cls-1{fill:blue;}</style></defs><title>Recurso 12facebook</title><g id="Capa_2" data-name="Capa 2"><g id="Capa_1-2" data-name="Capa 1"><path class="cls-1" d="M29.5,22.9a1,1,0,0,1-.5.8,1.5,1.5,0,0,1-1.1.4H20.3V15.7h3.9l.6-3.3H20.3v-2a1.7,1.7,0,0,1,.4-1.2,3,3,0,0,1,1.8-.4h2.4v-3H21.5a7.7,7.7,0,0,0-4.2,1.1A3.9,3.9,0,0,0,15.7,10v2.4H11.9v3.3h3.8v8.4H1.6a1.5,1.5,0,0,1-1.1-.4,1,1,0,0,1-.5-.8V3.6a1,1,0,0,1,.5-.8,2.1,2.1,0,0,1,1.1-.4H27.9a2.1,2.1,0,0,1,1.1.4,1,1,0,0,1,.5.8Z" transform="translate(0 -2.4)"/></g></g></svg>