<svg xmlns="http://www.w3.org/2000/svg" viewBox="0 0 61.2 29.1"><defs><style>.cls-1{fill:#8f3c98;}</style></defs><title>Recurso 7libro</title><g id="Capa_2" data-name="Capa 2"><g id="Capa_1-2" data-name="Capa 1"><path class="cls-1" d="M28.2,6.9a.9.9,0,0,1,.7.9V31.4c0,.3-.3.6-.8.8a2.2,2.2,0,0,1-1.6,0A75.4,75.4,0,0,0,14,30c-3.4-.4-7-.7-10.8-.8a4.1,4.1,0,0,1-2.3-.6A1.6,1.6,0,0,1,0,27.2V5.3A1.8,1.8,0,0,1,1.1,3.8a4,4,0,0,1,2.5-.5,106.8,106.8,0,0,1,11.8.9A61.2,61.2,0,0,1,28.2,6.9ZM57.6,3.3a4,4,0,0,1,2.5.5,1.8,1.8,0,0,1,1.1,1.5V27.2a1.6,1.6,0,0,1-.9,1.4,4.1,4.1,0,0,1-2.3.6c-3.8.1-7.4.4-10.8.8a75.4,75.4,0,0,0-12.5,2.2,2.2,2.2,0,0,1-1.6,0c-.5-.2-.8-.5-.8-.8V7.8a.9.9,0,0,1,.7-.9A61.2,61.2,0,0,1,45.8,4.2,106.8,106.8,0,0,1,57.6,3.3Z" transform="translate(0 -3.3)"/></g></g></svg>