<svg xmlns="http://www.w3.org/2000/svg" viewBox="0 0 68 33.3"><defs><style>.cls-1{fill:#8f3c98;}</style></defs><title>Recurso 6montaña</title><g id="Capa_2" data-name="Capa 2"><g id="Capa_1-2" data-name="Capa 1"><path class="cls-1" d="M67.5,71.2a1.4,1.4,0,0,1,.5,1,1.5,1.5,0,0,1-.4,1.1,3.6,3.6,0,0,1-1.2.8,5.7,5.7,0,0,1-1.8.3H3.4a5.7,5.7,0,0,1-1.8-.3,3.6,3.6,0,0,1-1.2-.8A1.5,1.5,0,0,1,0,72.2a1.4,1.4,0,0,1,.5-1L31.1,42.1a3.9,3.9,0,0,1,2.9-1,3.9,3.9,0,0,1,2.9,1ZM34,47,23.2,57.3l4,2.5L34,55.7h9Z" transform="translate(0 -41.1)"/></g></g></svg>