<svg xmlns="http://www.w3.org/2000/svg" viewBox="0 0 68 29.1"><defs><style>.cls-1{fill:#8f3c98;}</style></defs><title>Recurso 9personas</title><g id="Capa_2" data-name="Capa 2"><g id="Capa_1-2" data-name="Capa 1"><path class="cls-1" d="M28.6,19.9a17.4,17.4,0,0,1,6.1,1,12.3,12.3,0,0,1,4.5,2.7,5.4,5.4,0,0,1,1.6,3.8v1.9a2.7,2.7,0,0,1-1.5,2.2,6.9,6.9,0,0,1-3.6.9H5.1a6.9,6.9,0,0,1-3.6-.9A2.7,2.7,0,0,1,0,29.3V27.4a5.4,5.4,0,0,1,1.6-3.8,12.3,12.3,0,0,1,4.5-2.7,17.4,17.4,0,0,1,6.1-1h.9a25.7,25.7,0,0,0,7.3,1,25.7,25.7,0,0,0,7.3-1Zm-8.2-2.1a19.8,19.8,0,0,1-6-.9,12.2,12.2,0,0,1-4.3-2.7,5,5,0,0,1-1.6-3.6,5.2,5.2,0,0,1,1.6-3.7,10.8,10.8,0,0,1,4.3-2.6,17.2,17.2,0,0,1,6-1,16.3,16.3,0,0,1,5.9,1,10.5,10.5,0,0,1,4.4,2.6,5.2,5.2,0,0,1,1.6,3.7,5,5,0,0,1-1.6,3.6,11.8,11.8,0,0,1-4.4,2.7A18.7,18.7,0,0,1,20.4,17.8Zm35.7,2.1a16.3,16.3,0,0,1,5.9,1,10.5,10.5,0,0,1,4.4,2.6A5.3,5.3,0,0,1,68,27.2a2.7,2.7,0,0,1-1.5,2.2,6.9,6.9,0,0,1-3.6.9H44.1V27.4a6.6,6.6,0,0,0-1.1-3.5,11.6,11.6,0,0,0-3.2-3,17.6,17.6,0,0,1,6-1h.4a19.8,19.8,0,0,0,4.7.5,19.8,19.8,0,0,0,4.7-.5ZM51,17.8A13.7,13.7,0,0,1,43.8,16c-2-1.2-3-2.7-3-4.4s1-3.2,3-4.4A13.7,13.7,0,0,1,51,5.4a13.7,13.7,0,0,1,7.2,1.8c2,1.2,3,2.7,3,4.4s-1,3.2-3,4.4A13.7,13.7,0,0,1,51,17.8Z" transform="translate(0 -3.3)"/></g></g></svg>