<svg xmlns="http://www.w3.org/2000/svg" viewBox="0 0 27.1 24.8"><defs><style>.cls-1{fill:#332c2c;}</style></defs><title>Recurso 14subir</title><g id="Capa_2" data-name="Capa 2"><g id="Capa_1-2" data-name="Capa 1"><path class="cls-1" d="M3.3,6.6A13.3,13.3,0,0,1,8.2,2.1,14.6,14.6,0,0,1,15,.4a14.3,14.3,0,0,1,6.8,1.7,12.5,12.5,0,0,1,4.9,4.5,10.8,10.8,0,0,1,1.9,6.2A10.8,10.8,0,0,1,26.7,19a12.5,12.5,0,0,1-4.9,4.5A14.3,14.3,0,0,1,15,25.2a14.6,14.6,0,0,1-6.8-1.7A13.3,13.3,0,0,1,3.3,19a11.6,11.6,0,0,1-1.9-6.2A11.6,11.6,0,0,1,3.3,6.6Zm14.1,6.2h3.9a.5.5,0,0,0,.6-.4.5.5,0,0,0-.2-.7L15.4,6h-.8L8.3,11.7a.7.7,0,0,0-.2.7.5.5,0,0,0,.6.4h3.9v5.8a.8.8,0,0,0,.2.4l.5.2h3.5l.4-.2a.4.4,0,0,0,.2-.4Z" transform="translate(-1.4 -0.4)"/></g></g></svg>