<svg xmlns="http://www.w3.org/2000/svg" viewBox="0 0 38.9 20.8"><defs><style>.cls-1{fill:red;}</style></defs><title>Recurso 13youtube</title><g id="Capa_2" data-name="Capa 2"><g id="Capa_1-2" data-name="Capa 1"><path class="cls-1" d="M39.2,7.7a26.7,26.7,0,0,1,.7,4.5v5.4a26.7,26.7,0,0,1-.7,4.5,4.8,4.8,0,0,1-1.3,1.6,5.5,5.5,0,0,1-2.2,1,82.6,82.6,0,0,1-8.7.5H14a82.6,82.6,0,0,1-8.7-.5,5.5,5.5,0,0,1-2.2-1,3.6,3.6,0,0,1-1.2-1.6,18.3,18.3,0,0,1-.8-4.5V12.2a18.3,18.3,0,0,1,.8-4.5A3.8,3.8,0,0,1,3.1,6a5.4,5.4,0,0,1,2.2-.9A56,56,0,0,1,14,4.5H27a56,56,0,0,1,8.7.6,5.4,5.4,0,0,1,2.2.9A5.2,5.2,0,0,1,39.2,7.7ZM16.5,19.3l10.2-4.4L16.5,10.5Z" transform="translate(-1.1 -4.5)"/></g></g></svg>